<svg xmlns="http://www.w3.org/2000/svg" xmlns:xlink="http://www.w3.org/1999/xlink" id="svg1" width="60" height="60" x="0" y="0" version="1.0"><metadata><rdf:RDF xmlns:cc="http://web.resource.org/cc/" xmlns:dc="http://purl.org/dc/elements/1.1/" xmlns:rdf="http://www.w3.org/1999/02/22-rdf-syntax-ns#"><cc:Work><dc:title>Part of the Flat Icon Collection (Wed Aug 25 23:31:03 2004)</dc:title><dc:description/><dc:subject><rdf:Bag><rdf:li>hash</rdf:li><rdf:li/><rdf:li>computer</rdf:li><rdf:li>icons</rdf:li><rdf:li>device</rdf:li><rdf:li>theme</rdf:li></rdf:Bag></dc:subject><dc:publisher><cc:Agent rdf:about="http://www.openclipart.org"><dc:title>Danny Allen</dc:title></cc:Agent></dc:publisher><dc:creator><cc:Agent><dc:title>Danny Allen</dc:title></cc:Agent></dc:creator><dc:rights><cc:Agent><dc:title>Danny Allen</dc:title></cc:Agent></dc:rights><dc:date/><dc:format>image/svg+xml</dc:format><dc:type rdf:resource="http://purl.org/dc/dcmitype/StillImage"/><cc:license rdf:resource="http://web.resource.org/cc/PublicDomain"/><dc:language>en</dc:language></cc:Work><cc:License rdf:about="http://web.resource.org/cc/PublicDomain"><cc:permits rdf:resource="http://web.resource.org/cc/Reproduction"/><cc:permits rdf:resource="http://web.resource.org/cc/Distribution"/><cc:permits rdf:resource="http://web.resource.org/cc/DerivativeWorks"/></cc:License></rdf:RDF></metadata><defs id="defs3"><linearGradient id="linearGradient772"><stop id="stop773" offset="0" stop-color="#000" stop-opacity="1"/><stop id="stop774" offset="1" stop-color="#fff" stop-opacity="1"/></linearGradient><linearGradient id="linearGradient775" xlink:href="#linearGradient772"/></defs><path id="path600" fill="none" fill-opacity=".75" fill-rule="evenodd" stroke="#7f7f7f" stroke-dasharray="3.125 3.125" stroke-dashoffset="0" stroke-linecap="round" stroke-linejoin="round" stroke-width="3.125" d="M 32.158488,21.627263 C 34.637673,4.5503835 41.416321,1.2932948 47.825325,7.4453482 C 54.234330,13.597402 57.495291,4.5244676 57.495291,4.5244676" font-size="12"/><path id="path599" fill="#7f7f7f" fill-opacity="1" fill-rule="evenodd" stroke="none" stroke-dasharray="none" stroke-linecap="round" stroke-linejoin="round" stroke-opacity="1" stroke-width="3.125" d="M 3.5596735,45.856942 C 2.3031484,50.059763 11.278584,57.665090 15.227168,55.670373 C 25.636551,49.360030 44.388649,37.478370 42.063658,32.893762 C 38.016182,23.731906 30.376556,17.465665 20.792062,15.202773 C 15.059678,14.030447 7.4208059,34.175537 3.5596735,45.856942 z"/><path id="path613" fill="#666" fill-opacity="1" fill-rule="evenodd" stroke="none" stroke-dasharray="none" stroke-linecap="round" stroke-linejoin="round" stroke-opacity="1" stroke-width="3.125" d="M 20.734472,15.336662 C 18.097985,14.797476 15.061215,18.840787 12.171175,24.422909 L 35.180950,42.137822 C 39.699663,38.455272 42.987382,35.006721 41.979293,33.018891 C 37.931816,23.857035 24.995719,15.204094 20.734472,15.336662 z"/><path id="path604" fill="none" fill-opacity=".75" fill-rule="evenodd" stroke="#333" stroke-dasharray="none" stroke-width="2.5" d="M 23.745810,32.409890 L 32.529167,20.698748" font-size="12"/><path id="path833" fill="none" fill-rule="evenodd" stroke="#333" stroke-dasharray="none" stroke-linecap="round" stroke-linejoin="round" stroke-width="3.125" d="M 3.5596735,45.856942 C 1.6377426,51.922899 10.213934,58.197415 15.227168,55.670373 C 25.636551,49.360030 44.122487,37.345289 42.329820,31.829113 C 40.810886,25.595042 26.916447,15.602529 20.792062,15.202773 C 14.128109,14.163528 7.4208059,34.175537 3.5596735,45.856942 z"/><path id="path834" fill="none" fill-opacity=".75" fill-rule="evenodd" stroke="#333" stroke-dasharray="none" stroke-width="2.5" d="M 11.502344,25.489669 C 19.620295,29.881348 28.137490,36.003081 33.993060,42.657139"/></svg>