<svg xmlns="http://www.w3.org/2000/svg" xmlns:svg="http://www.w3.org/2000/svg" xmlns:xlink="http://www.w3.org/1999/xlink" id="svg3816" width="125" height="125" version="1.1"><defs id="defs3818"><linearGradient id="linearGradient3753" x1="1475.457" x2="876.954" y1="1033.013" y2="1319.926" gradientUnits="userSpaceOnUse" xlink:href="#linearGradient3731"/><linearGradient id="linearGradient3731"><stop id="stop3733" offset="0" stop-color="#000" stop-opacity="1"/><stop id="stop3735" offset="1" stop-color="#6f918a" stop-opacity="0"/></linearGradient><linearGradient id="linearGradient3751" x1="1475.457" x2="876.954" y1="1033.013" y2="1319.926" gradientUnits="userSpaceOnUse" xlink:href="#linearGradient3731"/><linearGradient id="linearGradient3745" x1="1475.457" x2="876.954" y1="1033.013" y2="1319.926" gradientUnits="userSpaceOnUse" xlink:href="#linearGradient3731"/><linearGradient id="linearGradient3743" x1="1475.457" x2="876.954" y1="1033.013" y2="1319.926" gradientUnits="userSpaceOnUse" xlink:href="#linearGradient3731"/><linearGradient id="linearGradient3737" x1="1475.457" x2="876.954" y1="1033.013" y2="1319.926" gradientUnits="userSpaceOnUse" xlink:href="#linearGradient3731"/><linearGradient id="linearGradient3755" x1="1475.457" x2="876.954" y1="1033.013" y2="1319.926" gradientUnits="userSpaceOnUse" xlink:href="#linearGradient3731"/><linearGradient id="linearGradient3814" x1="1475.457" x2="876.954" y1="1033.013" y2="1319.926" gradientUnits="userSpaceOnUse" xlink:href="#linearGradient3731"/></defs><metadata id="metadata3821"/><g id="layer1" transform="translate(34.389891,-213.11445)"><g id="g3727" fill="url(#linearGradient3737)" fill-opacity="1" transform="matrix(-0.06974118,-0.1188729,0.12542151,-0.0660998,-18.561627,487.60073)"><path id="path3729" fill="url(#linearGradient3814)" fill-opacity="1" fill-rule="evenodd" stroke="none" d="m 1519.1253,921.97391 c 1.5263,1.89879 58.968,135.42389 -20.7176,278.72929 -95.6499,172.0153 -282.3848,173.492 -286.3294,171.2986 l 0.7739,69.1982 -124.45,-153.2 125,-149 0,80.3108 c 3.1972,-0.1207 99.3148,-0.5026 151.8763,-92.6355 34.47,-60.421 18.9219,-124.7238 18.5012,-126.6267 l 98.9193,17.4404 36.4263,-95.51509 z"/></g><g id="g3739" fill="url(#linearGradient3745)" fill-opacity="1" transform="matrix(0.1434888,0.00219235,-0.00231312,0.13599685,-143.3223,131.45679)"><path id="path3741" fill="url(#linearGradient3743)" fill-opacity="1" fill-rule="evenodd" stroke="none" d="m 1519.1253,921.97391 c 1.5263,1.89879 58.968,135.42389 -20.7176,278.72929 -95.6499,172.0153 -282.3848,173.492 -286.3294,171.2986 l 0.7739,69.1982 -124.45,-153.2 125,-149 0,80.3108 c 3.1972,-0.1207 99.3148,-0.5026 151.8763,-92.6355 34.47,-60.421 18.9219,-124.7238 18.5012,-126.6267 l 98.9193,17.4404 36.4263,-95.51509 z"/></g><g id="g3747" fill="url(#linearGradient3753)" fill-opacity="1" transform="matrix(-0.07374762,0.11668055,-0.12310839,-0.06989705,244.47889,207.12423)"><path id="path3749" fill="url(#linearGradient3751)" fill-opacity="1" fill-rule="evenodd" stroke="none" d="m 1519.1253,921.97391 c 1.5263,1.89879 58.968,135.42389 -20.7176,278.72929 -95.6499,172.0153 -282.3848,173.492 -286.3294,171.2986 l 0.7739,69.1982 -124.45,-153.2 125,-149 0,80.3108 c 3.1972,-0.1207 99.3148,-0.5026 151.8763,-92.6355 34.47,-60.421 18.9219,-124.7238 18.5012,-126.6267 l 98.9193,17.4404 36.4263,-95.51509 z"/></g></g></svg>